<?xml version="1.0" encoding="UTF-8" standalone="no"?>
<!DOCTYPE svg PUBLIC "-//W3C//DTD SVG 1.1//EN" "http://www.w3.org/Graphics/SVG/1.1/DTD/svg11.dtd">
<svg width="100%" height="100%" viewBox="0 0 2881 1281" version="1.1" xmlns="http://www.w3.org/2000/svg" xmlns:xlink="http://www.w3.org/1999/xlink" xml:space="preserve" xmlns:serif="http://www.serif.com/" style="fill-rule:evenodd;clip-rule:evenodd;stroke-linejoin:round;stroke-miterlimit:2;">
    <path d="M0,0L2881,0L2881,1034C2497.96,999.194 2376.88,995.458 2107.59,1025.87C1720.47,1069.58 1568.26,927.84 1073.12,831.183C810.12,779.841 489.762,1003.33 0,928L0,0Z" style="fill:rgb(255,167,36);fill-opacity:0.23;"/>
    <path d="M0,0L2881,0L2881,985C2507.9,928.739 2226.32,943.06 1911.59,987.584C1522.53,1042.62 1075.18,928.81 584.124,813.183C315.12,749.841 172.762,778.33 0,838L0,0Z" style="fill:rgb(255,167,36);fill-opacity:0.47;"/>
    <path d="M0,0L2881,0L2881,890C2481.9,879.739 2315.27,888.343 2025.59,958.917C1643.93,1051.9 1160.18,898.81 669.124,783.183C400.12,719.841 174.762,736.33 0,838L0,0Z" style="fill:rgb(255,167,36);"/>
</svg>
