<?xml version="1.0" encoding="UTF-8" standalone="no"?>
<!DOCTYPE svg PUBLIC "-//W3C//DTD SVG 1.1//EN" "http://www.w3.org/Graphics/SVG/1.1/DTD/svg11.dtd">
<svg width="100%" height="100%" viewBox="0 0 1080 300" version="1.1" xmlns="http://www.w3.org/2000/svg" xmlns:xlink="http://www.w3.org/1999/xlink" xml:space="preserve" xmlns:serif="http://www.serif.com/" style="fill-rule:evenodd;clip-rule:evenodd;stroke-linecap:round;stroke-linejoin:round;stroke-miterlimit:1.5;">
    <rect id="Artboard1" x="0" y="0" width="1080" height="300" style="fill:none;"/>
    <g id="Artboard11" serif:id="Artboard1">
        <g transform="matrix(0.53418,0,0,0.53418,-0.900191,-211.869)">
            <circle cx="427.142" cy="733.974" r="178.026" style="fill:white;fill-opacity:0.32;"/>
        </g>
        <g transform="matrix(1.06729,0,0,1.06729,-103.276,-309.574)">
            <g transform="matrix(148.351,0,0,148.351,346,434)">
                <path d="M0.548,-0.293C0.549,-0.286 0.549,-0.276 0.549,-0.261C0.549,-0.246 0.549,-0.235 0.548,-0.228C0.546,-0.18 0.535,-0.138 0.515,-0.102C0.494,-0.066 0.467,-0.038 0.434,-0.019C0.4,0 0.362,0.01 0.321,0.01C0.252,0.01 0.2,-0.013 0.166,-0.058L0.166,-0.027C0.166,-0.02 0.163,-0.013 0.158,-0.008C0.153,-0.003 0.146,-0 0.139,-0L0.102,-0C0.095,-0 0.088,-0.003 0.083,-0.008C0.078,-0.013 0.075,-0.02 0.075,-0.027L0.075,-0.683C0.075,-0.69 0.078,-0.697 0.083,-0.702C0.088,-0.707 0.095,-0.71 0.102,-0.71L0.139,-0.71C0.146,-0.71 0.153,-0.707 0.158,-0.702C0.163,-0.697 0.166,-0.69 0.166,-0.683L0.166,-0.462C0.181,-0.481 0.201,-0.498 0.227,-0.51C0.252,-0.524 0.284,-0.53 0.321,-0.53C0.363,-0.53 0.401,-0.52 0.434,-0.501C0.467,-0.482 0.494,-0.454 0.515,-0.419C0.535,-0.383 0.546,-0.341 0.548,-0.293ZM0.311,-0.076C0.354,-0.076 0.389,-0.09 0.414,-0.117C0.439,-0.145 0.454,-0.183 0.457,-0.232C0.458,-0.239 0.458,-0.248 0.458,-0.26C0.458,-0.317 0.445,-0.362 0.42,-0.395C0.394,-0.428 0.358,-0.444 0.311,-0.444C0.269,-0.444 0.235,-0.431 0.21,-0.405C0.185,-0.379 0.17,-0.343 0.166,-0.296C0.165,-0.289 0.165,-0.276 0.165,-0.257C0.165,-0.237 0.165,-0.224 0.166,-0.217C0.169,-0.174 0.184,-0.139 0.211,-0.114C0.237,-0.089 0.27,-0.076 0.311,-0.076Z" style="fill:white;fill-rule:nonzero;"/>
            </g>
            <g transform="matrix(148.351,0,0,148.351,434.714,434)">
                <path d="M0.28,-0.53C0.351,-0.53 0.408,-0.507 0.449,-0.462C0.49,-0.417 0.511,-0.355 0.511,-0.277L0.511,-0.25C0.511,-0.243 0.508,-0.236 0.503,-0.231C0.498,-0.226 0.491,-0.223 0.484,-0.223L0.14,-0.223L0.14,-0.217C0.141,-0.173 0.155,-0.139 0.181,-0.114C0.206,-0.089 0.239,-0.076 0.28,-0.076C0.313,-0.076 0.339,-0.08 0.358,-0.089C0.376,-0.098 0.392,-0.11 0.407,-0.126C0.412,-0.131 0.417,-0.135 0.422,-0.137C0.426,-0.139 0.432,-0.14 0.439,-0.14L0.469,-0.14C0.477,-0.14 0.484,-0.137 0.489,-0.132C0.494,-0.127 0.497,-0.12 0.496,-0.113C0.493,-0.095 0.484,-0.077 0.467,-0.058C0.45,-0.039 0.425,-0.023 0.394,-0.01C0.362,0.003 0.324,0.01 0.28,0.01C0.237,0.01 0.199,0 0.166,-0.02C0.133,-0.039 0.106,-0.066 0.086,-0.101C0.067,-0.136 0.055,-0.175 0.051,-0.218C0.05,-0.238 0.049,-0.253 0.049,-0.264C0.049,-0.275 0.05,-0.29 0.051,-0.31C0.055,-0.351 0.067,-0.389 0.086,-0.422C0.106,-0.455 0.133,-0.482 0.166,-0.501C0.199,-0.52 0.237,-0.53 0.28,-0.53ZM0.421,-0.307L0.421,-0.31C0.421,-0.351 0.408,-0.383 0.383,-0.407C0.357,-0.432 0.323,-0.444 0.28,-0.444C0.241,-0.444 0.209,-0.432 0.182,-0.407C0.155,-0.382 0.141,-0.35 0.14,-0.31L0.14,-0.307L0.421,-0.307Z" style="fill:white;fill-rule:nonzero;"/>
            </g>
            <g transform="matrix(148.351,0,0,148.351,517.345,434)">
                <path d="M0.211,-0.175C0.211,-0.146 0.217,-0.124 0.229,-0.109C0.24,-0.094 0.262,-0.086 0.295,-0.086L0.348,-0.086C0.355,-0.086 0.362,-0.083 0.367,-0.078C0.372,-0.073 0.375,-0.066 0.375,-0.059L0.375,-0.027C0.375,-0.02 0.372,-0.013 0.367,-0.008C0.362,-0.003 0.355,-0 0.348,-0L0.285,-0C0.228,-0 0.187,-0.015 0.16,-0.045C0.133,-0.074 0.12,-0.118 0.12,-0.175L0.12,-0.434L0.046,-0.434C0.039,-0.434 0.032,-0.437 0.027,-0.442C0.022,-0.447 0.019,-0.454 0.019,-0.461L0.019,-0.493C0.019,-0.5 0.022,-0.507 0.027,-0.512C0.032,-0.517 0.039,-0.52 0.046,-0.52L0.12,-0.52L0.12,-0.683C0.12,-0.69 0.123,-0.697 0.128,-0.702C0.133,-0.707 0.14,-0.71 0.147,-0.71L0.184,-0.71C0.191,-0.71 0.198,-0.707 0.203,-0.702C0.208,-0.697 0.211,-0.69 0.211,-0.683L0.211,-0.52L0.338,-0.52C0.345,-0.52 0.352,-0.517 0.357,-0.512C0.362,-0.507 0.365,-0.5 0.365,-0.493L0.365,-0.461C0.365,-0.454 0.362,-0.447 0.357,-0.442C0.352,-0.437 0.345,-0.434 0.338,-0.434L0.211,-0.434L0.211,-0.175Z" style="fill:white;fill-rule:nonzero;"/>
            </g>
            <g transform="matrix(148.351,0,0,148.351,576.685,434)">
                <path d="M0.676,-0.496C0.682,-0.512 0.693,-0.52 0.71,-0.52L0.743,-0.52C0.75,-0.52 0.755,-0.518 0.76,-0.513C0.765,-0.508 0.767,-0.503 0.767,-0.496L0.766,-0.488L0.613,-0.028C0.607,-0.009 0.597,-0 0.583,-0L0.552,-0C0.544,-0 0.538,-0.003 0.533,-0.008C0.528,-0.013 0.524,-0.019 0.521,-0.028L0.402,-0.36L0.283,-0.028C0.28,-0.019 0.276,-0.013 0.271,-0.008C0.266,-0.003 0.26,-0 0.252,-0L0.221,-0C0.207,-0 0.197,-0.009 0.191,-0.028L0.038,-0.488L0.037,-0.496C0.037,-0.503 0.039,-0.508 0.044,-0.513C0.049,-0.518 0.054,-0.52 0.061,-0.52L0.094,-0.52C0.111,-0.52 0.122,-0.512 0.128,-0.496L0.24,-0.162L0.36,-0.496C0.366,-0.512 0.376,-0.52 0.391,-0.52L0.413,-0.52C0.428,-0.52 0.438,-0.512 0.444,-0.496L0.564,-0.162L0.676,-0.496Z" style="fill:white;fill-rule:nonzero;"/>
            </g>
            <g transform="matrix(148.351,0,0,148.351,695.959,434)">
                <path d="M0.28,-0.53C0.351,-0.53 0.408,-0.507 0.449,-0.462C0.49,-0.417 0.511,-0.355 0.511,-0.277L0.511,-0.25C0.511,-0.243 0.508,-0.236 0.503,-0.231C0.498,-0.226 0.491,-0.223 0.484,-0.223L0.14,-0.223L0.14,-0.217C0.141,-0.173 0.155,-0.139 0.181,-0.114C0.206,-0.089 0.239,-0.076 0.28,-0.076C0.313,-0.076 0.339,-0.08 0.358,-0.089C0.376,-0.098 0.392,-0.11 0.407,-0.126C0.412,-0.131 0.417,-0.135 0.422,-0.137C0.426,-0.139 0.432,-0.14 0.439,-0.14L0.469,-0.14C0.477,-0.14 0.484,-0.137 0.489,-0.132C0.494,-0.127 0.497,-0.12 0.496,-0.113C0.493,-0.095 0.484,-0.077 0.467,-0.058C0.45,-0.039 0.425,-0.023 0.394,-0.01C0.362,0.003 0.324,0.01 0.28,0.01C0.237,0.01 0.199,0 0.166,-0.02C0.133,-0.039 0.106,-0.066 0.086,-0.101C0.067,-0.136 0.055,-0.175 0.051,-0.218C0.05,-0.238 0.049,-0.253 0.049,-0.264C0.049,-0.275 0.05,-0.29 0.051,-0.31C0.055,-0.351 0.067,-0.389 0.086,-0.422C0.106,-0.455 0.133,-0.482 0.166,-0.501C0.199,-0.52 0.237,-0.53 0.28,-0.53ZM0.421,-0.307L0.421,-0.31C0.421,-0.351 0.408,-0.383 0.383,-0.407C0.357,-0.432 0.323,-0.444 0.28,-0.444C0.241,-0.444 0.209,-0.432 0.182,-0.407C0.155,-0.382 0.141,-0.35 0.14,-0.31L0.14,-0.307L0.421,-0.307Z" style="fill:white;fill-rule:nonzero;"/>
            </g>
            <g transform="matrix(148.351,0,0,148.351,778.591,434)">
                <path d="M0.28,-0.53C0.351,-0.53 0.408,-0.507 0.449,-0.462C0.49,-0.417 0.511,-0.355 0.511,-0.277L0.511,-0.25C0.511,-0.243 0.508,-0.236 0.503,-0.231C0.498,-0.226 0.491,-0.223 0.484,-0.223L0.14,-0.223L0.14,-0.217C0.141,-0.173 0.155,-0.139 0.181,-0.114C0.206,-0.089 0.239,-0.076 0.28,-0.076C0.313,-0.076 0.339,-0.08 0.358,-0.089C0.376,-0.098 0.392,-0.11 0.407,-0.126C0.412,-0.131 0.417,-0.135 0.422,-0.137C0.426,-0.139 0.432,-0.14 0.439,-0.14L0.469,-0.14C0.477,-0.14 0.484,-0.137 0.489,-0.132C0.494,-0.127 0.497,-0.12 0.496,-0.113C0.493,-0.095 0.484,-0.077 0.467,-0.058C0.45,-0.039 0.425,-0.023 0.394,-0.01C0.362,0.003 0.324,0.01 0.28,0.01C0.237,0.01 0.199,0 0.166,-0.02C0.133,-0.039 0.106,-0.066 0.086,-0.101C0.067,-0.136 0.055,-0.175 0.051,-0.218C0.05,-0.238 0.049,-0.253 0.049,-0.264C0.049,-0.275 0.05,-0.29 0.051,-0.31C0.055,-0.351 0.067,-0.389 0.086,-0.422C0.106,-0.455 0.133,-0.482 0.166,-0.501C0.199,-0.52 0.237,-0.53 0.28,-0.53ZM0.421,-0.307L0.421,-0.31C0.421,-0.351 0.408,-0.383 0.383,-0.407C0.357,-0.432 0.323,-0.444 0.28,-0.444C0.241,-0.444 0.209,-0.432 0.182,-0.407C0.155,-0.382 0.141,-0.35 0.14,-0.31L0.14,-0.307L0.421,-0.307Z" style="fill:white;fill-rule:nonzero;"/>
            </g>
            <g transform="matrix(148.351,0,0,148.351,861.222,434)">
                <path d="M0.537,-0.027C0.537,-0.02 0.534,-0.013 0.529,-0.008C0.524,-0.003 0.517,-0 0.51,-0L0.473,-0C0.466,-0 0.459,-0.003 0.454,-0.008C0.449,-0.013 0.446,-0.02 0.446,-0.027L0.446,-0.291C0.446,-0.341 0.434,-0.379 0.409,-0.405C0.384,-0.431 0.35,-0.444 0.306,-0.444C0.263,-0.444 0.229,-0.431 0.203,-0.405C0.179,-0.379 0.166,-0.341 0.166,-0.291L0.166,-0.027C0.166,-0.02 0.163,-0.013 0.158,-0.008C0.153,-0.003 0.146,-0 0.139,-0L0.102,-0C0.095,-0 0.088,-0.003 0.083,-0.008C0.078,-0.013 0.075,-0.02 0.075,-0.027L0.075,-0.493C0.075,-0.5 0.078,-0.507 0.083,-0.512C0.088,-0.517 0.095,-0.52 0.102,-0.52L0.139,-0.52C0.146,-0.52 0.153,-0.517 0.158,-0.512C0.163,-0.507 0.166,-0.5 0.166,-0.493L0.166,-0.462C0.181,-0.481 0.201,-0.498 0.227,-0.51C0.252,-0.524 0.284,-0.53 0.321,-0.53C0.363,-0.53 0.4,-0.521 0.433,-0.503C0.466,-0.485 0.491,-0.459 0.509,-0.426C0.528,-0.392 0.537,-0.352 0.537,-0.306L0.537,-0.027Z" style="fill:white;fill-rule:nonzero;"/>
            </g>
            <g transform="matrix(148.351,0,0,148.351,951.271,434)">
                <path d="M0.2,-0.231C0.103,-0.252 0.054,-0.301 0.054,-0.38C0.054,-0.407 0.061,-0.432 0.076,-0.455C0.091,-0.478 0.113,-0.496 0.141,-0.509C0.171,-0.523 0.206,-0.53 0.248,-0.53C0.289,-0.53 0.325,-0.524 0.355,-0.512C0.385,-0.5 0.408,-0.485 0.424,-0.467C0.439,-0.449 0.447,-0.432 0.447,-0.415C0.447,-0.408 0.444,-0.403 0.439,-0.398C0.434,-0.393 0.427,-0.39 0.42,-0.39L0.387,-0.39C0.374,-0.39 0.364,-0.395 0.357,-0.404C0.336,-0.431 0.3,-0.444 0.248,-0.444C0.217,-0.444 0.193,-0.438 0.173,-0.427C0.155,-0.416 0.145,-0.4 0.145,-0.38C0.145,-0.363 0.15,-0.351 0.159,-0.342C0.168,-0.333 0.182,-0.326 0.201,-0.321C0.22,-0.316 0.253,-0.308 0.3,-0.297C0.359,-0.284 0.4,-0.265 0.425,-0.239C0.45,-0.213 0.462,-0.181 0.462,-0.144C0.462,-0.117 0.454,-0.091 0.437,-0.068C0.42,-0.045 0.395,-0.026 0.364,-0.012C0.332,0.003 0.295,0.01 0.253,0.01C0.212,0.01 0.175,0.003 0.143,-0.01C0.112,-0.023 0.087,-0.038 0.07,-0.057C0.053,-0.076 0.044,-0.093 0.044,-0.11C0.044,-0.117 0.047,-0.123 0.052,-0.128C0.057,-0.133 0.064,-0.135 0.071,-0.135L0.107,-0.135C0.113,-0.135 0.118,-0.134 0.123,-0.133C0.128,-0.132 0.132,-0.128 0.136,-0.122C0.158,-0.091 0.197,-0.076 0.253,-0.076C0.284,-0.076 0.312,-0.083 0.336,-0.096C0.359,-0.109 0.371,-0.125 0.371,-0.144C0.371,-0.16 0.365,-0.173 0.354,-0.183C0.342,-0.192 0.325,-0.2 0.303,-0.206C0.281,-0.213 0.247,-0.221 0.2,-0.231Z" style="fill:white;fill-rule:nonzero;"/>
            </g>
        </g>
        <g transform="matrix(1.12794,0,0,1.12794,-340.976,-335.104)">
            <g transform="matrix(140.374,0,0,140.374,346,434)">
                <path d="M0.176,-0.626C0.176,-0.619 0.173,-0.612 0.168,-0.607C0.163,-0.602 0.156,-0.599 0.149,-0.599L0.092,-0.599C0.085,-0.599 0.078,-0.602 0.073,-0.607C0.068,-0.612 0.065,-0.619 0.065,-0.626L0.065,-0.683C0.065,-0.69 0.068,-0.697 0.073,-0.702C0.078,-0.707 0.085,-0.71 0.092,-0.71L0.149,-0.71C0.156,-0.71 0.163,-0.707 0.168,-0.702C0.173,-0.697 0.176,-0.69 0.176,-0.683L0.176,-0.626ZM0.166,-0.027C0.166,-0.02 0.163,-0.013 0.158,-0.008C0.153,-0.003 0.146,-0 0.139,-0L0.102,-0C0.095,-0 0.088,-0.003 0.083,-0.008C0.078,-0.013 0.075,-0.02 0.075,-0.027L0.075,-0.493C0.075,-0.5 0.078,-0.507 0.083,-0.512C0.088,-0.517 0.095,-0.52 0.102,-0.52L0.139,-0.52C0.146,-0.52 0.153,-0.517 0.158,-0.512C0.163,-0.507 0.166,-0.5 0.166,-0.493L0.166,-0.027Z" style="fill:white;fill-rule:nonzero;"/>
            </g>
            <g transform="matrix(140.374,0,0,140.374,379.83,434)">
                <path d="M0.537,-0.027C0.537,-0.02 0.534,-0.013 0.529,-0.008C0.524,-0.003 0.517,-0 0.51,-0L0.473,-0C0.466,-0 0.459,-0.003 0.454,-0.008C0.449,-0.013 0.446,-0.02 0.446,-0.027L0.446,-0.291C0.446,-0.341 0.434,-0.379 0.409,-0.405C0.384,-0.431 0.35,-0.444 0.306,-0.444C0.263,-0.444 0.229,-0.431 0.203,-0.405C0.179,-0.379 0.166,-0.341 0.166,-0.291L0.166,-0.027C0.166,-0.02 0.163,-0.013 0.158,-0.008C0.153,-0.003 0.146,-0 0.139,-0L0.102,-0C0.095,-0 0.088,-0.003 0.083,-0.008C0.078,-0.013 0.075,-0.02 0.075,-0.027L0.075,-0.493C0.075,-0.5 0.078,-0.507 0.083,-0.512C0.088,-0.517 0.095,-0.52 0.102,-0.52L0.139,-0.52C0.146,-0.52 0.153,-0.517 0.158,-0.512C0.163,-0.507 0.166,-0.5 0.166,-0.493L0.166,-0.462C0.181,-0.481 0.201,-0.498 0.227,-0.51C0.252,-0.524 0.284,-0.53 0.321,-0.53C0.363,-0.53 0.4,-0.521 0.433,-0.503C0.466,-0.485 0.491,-0.459 0.509,-0.426C0.528,-0.392 0.537,-0.352 0.537,-0.306L0.537,-0.027Z" style="fill:white;fill-rule:nonzero;"/>
            </g>
        </g>
        <g transform="matrix(0.985966,0,0,0.985966,1.15186,-37.0398)">
            <circle cx="229.337" cy="220.337" r="32.337" style="fill:white;"/>
        </g>
        <g transform="matrix(0.930222,0,0,0.930222,-110.557,-162.394)">
            <rect x="163" y="185" width="53.779" height="53.779" style="fill:white;"/>
        </g>
        <g transform="matrix(0.953915,0,0,0.953915,326.324,-475.416)">
            <path d="M733,646L768,716L698,716L733,646Z" style="fill:white;"/>
        </g>
        <g transform="matrix(1.12527,0,0,1.12527,-91.3545,-508.367)">
            <path d="M155.03,481.62L283.154,482.62L283.154,611.917L992.56,611.917" style="fill:none;stroke:white;stroke-width:11.84px;"/>
        </g>
        <g transform="matrix(1.05883,0,0,0.957444,-75.6154,-370.307)">
            <g transform="matrix(57.4718,0,0,57.4718,370,658)">
                <path d="M0.144,-0.158L0.064,-0.025C0.059,-0.018 0.054,-0.012 0.047,-0.007C0.04,-0.002 0.031,-0 0.02,-0L-0.025,-0C-0.03,-0 -0.035,-0.002 -0.038,-0.006C-0.041,-0.009 -0.043,-0.013 -0.043,-0.018C-0.043,-0.021 -0.042,-0.025 -0.04,-0.029L0.343,-0.667C0.356,-0.689 0.374,-0.7 0.395,-0.7L0.459,-0.7C0.48,-0.7 0.492,-0.689 0.497,-0.667L0.607,-0.036C0.608,-0.033 0.608,-0.03 0.608,-0.026C0.608,-0.018 0.606,-0.012 0.602,-0.007C0.597,-0.002 0.591,-0 0.582,-0L0.549,-0C0.53,-0 0.518,-0.008 0.515,-0.025L0.491,-0.158L0.144,-0.158ZM0.475,-0.248L0.413,-0.605L0.198,-0.248L0.475,-0.248Z" style="fill:white;fill-rule:nonzero;"/>
            </g>
            <g transform="matrix(38.3145,0,0,38.3145,408.123,658)">
                <path d="M0.623,-0.266C0.603,-0.181 0.565,-0.115 0.508,-0.069C0.452,-0.023 0.379,-0 0.29,-0L0.051,-0C0.044,-0 0.038,-0.003 0.034,-0.008C0.029,-0.013 0.028,-0.02 0.029,-0.027L0.167,-0.673C0.168,-0.68 0.172,-0.687 0.179,-0.692C0.185,-0.697 0.192,-0.7 0.199,-0.7L0.425,-0.7C0.472,-0.7 0.514,-0.691 0.55,-0.674C0.586,-0.657 0.614,-0.632 0.633,-0.6C0.653,-0.567 0.663,-0.529 0.663,-0.485C0.663,-0.466 0.661,-0.445 0.657,-0.424C0.646,-0.367 0.634,-0.314 0.623,-0.266ZM0.248,-0.61L0.138,-0.09L0.29,-0.09C0.361,-0.09 0.415,-0.107 0.454,-0.142C0.492,-0.177 0.517,-0.221 0.53,-0.276C0.541,-0.324 0.552,-0.373 0.562,-0.424C0.566,-0.449 0.568,-0.468 0.568,-0.479C0.568,-0.566 0.517,-0.61 0.415,-0.61L0.248,-0.61Z" style="fill:white;fill-rule:nonzero;"/>
            </g>
            <g transform="matrix(38.3145,0,0,38.3145,432.721,658)">
                <path d="M0.585,-0.675C0.589,-0.682 0.594,-0.688 0.6,-0.693C0.606,-0.698 0.615,-0.7 0.626,-0.7L0.67,-0.7C0.676,-0.7 0.681,-0.698 0.685,-0.695C0.688,-0.691 0.69,-0.686 0.69,-0.681C0.69,-0.677 0.689,-0.673 0.686,-0.668L0.337,-0.04C0.33,-0.027 0.322,-0.018 0.312,-0.011C0.301,-0.004 0.289,-0 0.276,-0L0.239,-0C0.226,-0 0.215,-0.004 0.208,-0.011C0.201,-0.018 0.196,-0.027 0.195,-0.04L0.116,-0.668C0.115,-0.676 0.117,-0.683 0.123,-0.69C0.128,-0.697 0.135,-0.7 0.143,-0.7L0.175,-0.7C0.195,-0.7 0.206,-0.691 0.209,-0.672L0.278,-0.118L0.585,-0.675Z" style="fill:white;fill-rule:nonzero;"/>
            </g>
            <g transform="matrix(38.3145,0,0,38.3145,457.357,658)">
                <path d="M0.144,-0.158L0.064,-0.025C0.059,-0.018 0.054,-0.012 0.047,-0.007C0.04,-0.002 0.031,-0 0.02,-0L-0.025,-0C-0.03,-0 -0.035,-0.002 -0.038,-0.006C-0.041,-0.009 -0.043,-0.013 -0.043,-0.018C-0.043,-0.021 -0.042,-0.025 -0.04,-0.029L0.343,-0.667C0.356,-0.689 0.374,-0.7 0.395,-0.7L0.459,-0.7C0.48,-0.7 0.492,-0.689 0.497,-0.667L0.607,-0.036C0.608,-0.033 0.608,-0.03 0.608,-0.026C0.608,-0.018 0.606,-0.012 0.602,-0.007C0.597,-0.002 0.591,-0 0.582,-0L0.549,-0C0.53,-0 0.518,-0.008 0.515,-0.025L0.491,-0.158L0.144,-0.158ZM0.475,-0.248L0.413,-0.605L0.198,-0.248L0.475,-0.248Z" style="fill:white;fill-rule:nonzero;"/>
            </g>
            <g transform="matrix(38.3145,0,0,38.3145,483.488,658)">
                <path d="M0.487,-0C0.473,-0 0.462,-0.01 0.453,-0.03L0.231,-0.53L0.124,-0.027C0.123,-0.02 0.119,-0.013 0.113,-0.008C0.106,-0.003 0.099,-0 0.092,-0L0.051,-0C0.044,-0 0.038,-0.003 0.034,-0.008C0.029,-0.013 0.028,-0.02 0.029,-0.027L0.167,-0.673C0.168,-0.68 0.172,-0.687 0.179,-0.692C0.185,-0.697 0.192,-0.7 0.199,-0.7L0.231,-0.7C0.245,-0.7 0.256,-0.69 0.265,-0.67L0.487,-0.172L0.594,-0.673C0.595,-0.68 0.599,-0.687 0.606,-0.692C0.612,-0.697 0.619,-0.7 0.626,-0.7L0.667,-0.7C0.674,-0.7 0.68,-0.697 0.685,-0.692C0.689,-0.687 0.69,-0.68 0.689,-0.673L0.551,-0.027C0.55,-0.02 0.546,-0.013 0.54,-0.008C0.533,-0.003 0.526,-0 0.519,-0L0.487,-0Z" style="fill:white;fill-rule:nonzero;"/>
            </g>
            <g transform="matrix(38.3145,0,0,38.3145,510.116,658)">
                <path d="M0.148,-0.266C0.145,-0.253 0.144,-0.239 0.144,-0.224C0.144,-0.181 0.157,-0.146 0.183,-0.119C0.209,-0.093 0.243,-0.08 0.286,-0.08C0.345,-0.08 0.393,-0.093 0.429,-0.118C0.464,-0.144 0.491,-0.177 0.508,-0.216C0.511,-0.223 0.515,-0.228 0.521,-0.232C0.527,-0.236 0.533,-0.238 0.539,-0.238L0.587,-0.238C0.593,-0.238 0.598,-0.236 0.601,-0.232C0.604,-0.227 0.605,-0.222 0.604,-0.216C0.596,-0.183 0.579,-0.149 0.554,-0.114C0.528,-0.079 0.492,-0.05 0.447,-0.026C0.402,-0.002 0.348,0.01 0.286,0.01C0.239,0.01 0.197,0.001 0.161,-0.018C0.125,-0.037 0.097,-0.063 0.077,-0.096C0.057,-0.129 0.047,-0.167 0.047,-0.21C0.047,-0.224 0.049,-0.241 0.052,-0.261C0.064,-0.326 0.077,-0.386 0.09,-0.439C0.103,-0.492 0.124,-0.539 0.155,-0.58C0.186,-0.621 0.224,-0.653 0.269,-0.676C0.314,-0.699 0.365,-0.71 0.421,-0.71C0.478,-0.71 0.524,-0.7 0.561,-0.679C0.597,-0.658 0.623,-0.632 0.639,-0.602C0.654,-0.571 0.662,-0.539 0.662,-0.507C0.662,-0.496 0.662,-0.489 0.661,-0.484C0.66,-0.478 0.657,-0.473 0.652,-0.469C0.647,-0.464 0.641,-0.462 0.635,-0.462L0.588,-0.462C0.582,-0.462 0.577,-0.464 0.573,-0.468C0.568,-0.472 0.566,-0.477 0.566,-0.484C0.565,-0.511 0.562,-0.534 0.555,-0.553C0.548,-0.572 0.534,-0.588 0.513,-0.601C0.492,-0.614 0.461,-0.62 0.421,-0.62C0.358,-0.62 0.307,-0.603 0.266,-0.57C0.225,-0.537 0.198,-0.491 0.184,-0.434C0.172,-0.385 0.16,-0.329 0.148,-0.266Z" style="fill:white;fill-rule:nonzero;"/>
            </g>
            <g transform="matrix(38.3145,0,0,38.3145,535.595,658)">
                <path d="M0.184,-0.309L0.49,-0.309C0.497,-0.309 0.504,-0.312 0.511,-0.317C0.518,-0.322 0.522,-0.329 0.523,-0.336L0.531,-0.372C0.532,-0.379 0.531,-0.386 0.527,-0.391C0.522,-0.396 0.516,-0.399 0.509,-0.399L0.203,-0.399L0.248,-0.61L0.576,-0.61C0.583,-0.61 0.59,-0.613 0.597,-0.618C0.604,-0.623 0.608,-0.63 0.609,-0.637L0.617,-0.673C0.618,-0.68 0.617,-0.687 0.613,-0.692C0.608,-0.697 0.602,-0.7 0.595,-0.7L0.199,-0.7C0.192,-0.7 0.185,-0.697 0.179,-0.692C0.172,-0.687 0.168,-0.68 0.167,-0.673L0.029,-0.027C0.028,-0.02 0.029,-0.013 0.034,-0.008C0.038,-0.003 0.044,-0 0.051,-0L0.455,-0C0.462,-0 0.469,-0.003 0.475,-0.008C0.482,-0.013 0.486,-0.02 0.487,-0.027L0.495,-0.063C0.496,-0.07 0.495,-0.077 0.491,-0.082C0.487,-0.087 0.481,-0.09 0.474,-0.09L0.138,-0.09L0.184,-0.309Z" style="fill:white;fill-rule:nonzero;"/>
            </g>
            <g transform="matrix(38.3145,0,0,38.3145,558.277,658)">
                <path d="M0.623,-0.266C0.603,-0.181 0.565,-0.115 0.508,-0.069C0.452,-0.023 0.379,-0 0.29,-0L0.051,-0C0.044,-0 0.038,-0.003 0.034,-0.008C0.029,-0.013 0.028,-0.02 0.029,-0.027L0.167,-0.673C0.168,-0.68 0.172,-0.687 0.179,-0.692C0.185,-0.697 0.192,-0.7 0.199,-0.7L0.425,-0.7C0.472,-0.7 0.514,-0.691 0.55,-0.674C0.586,-0.657 0.614,-0.632 0.633,-0.6C0.653,-0.567 0.663,-0.529 0.663,-0.485C0.663,-0.466 0.661,-0.445 0.657,-0.424C0.646,-0.367 0.634,-0.314 0.623,-0.266ZM0.248,-0.61L0.138,-0.09L0.29,-0.09C0.361,-0.09 0.415,-0.107 0.454,-0.142C0.492,-0.177 0.517,-0.221 0.53,-0.276C0.541,-0.324 0.552,-0.373 0.562,-0.424C0.566,-0.449 0.568,-0.468 0.568,-0.479C0.568,-0.566 0.517,-0.61 0.415,-0.61L0.248,-0.61Z" style="fill:white;fill-rule:nonzero;"/>
            </g>
            <g transform="matrix(57.4718,0,0,57.4718,598.648,658)">
                <path d="M0.603,-0.529C0.603,-0.523 0.6,-0.518 0.594,-0.514C0.588,-0.509 0.582,-0.507 0.576,-0.507L0.535,-0.507C0.527,-0.507 0.521,-0.508 0.518,-0.511C0.515,-0.515 0.512,-0.52 0.509,-0.529C0.503,-0.55 0.489,-0.57 0.468,-0.59C0.446,-0.61 0.416,-0.62 0.377,-0.62C0.329,-0.62 0.29,-0.611 0.26,-0.594C0.229,-0.576 0.21,-0.55 0.203,-0.516C0.202,-0.511 0.201,-0.505 0.201,-0.496C0.201,-0.478 0.207,-0.463 0.22,-0.452C0.233,-0.44 0.251,-0.429 0.276,-0.42C0.3,-0.411 0.336,-0.399 0.384,-0.386C0.444,-0.369 0.488,-0.348 0.516,-0.322C0.543,-0.296 0.557,-0.264 0.557,-0.226C0.557,-0.215 0.555,-0.201 0.552,-0.184C0.539,-0.123 0.506,-0.076 0.454,-0.042C0.402,-0.007 0.334,0.01 0.249,0.01C0.2,0.01 0.157,0.001 0.121,-0.018C0.084,-0.037 0.057,-0.06 0.038,-0.089C0.019,-0.118 0.01,-0.147 0.011,-0.176C0.011,-0.182 0.014,-0.187 0.02,-0.192C0.026,-0.196 0.032,-0.198 0.038,-0.198L0.079,-0.198C0.086,-0.198 0.092,-0.197 0.096,-0.194C0.1,-0.191 0.103,-0.185 0.105,-0.176C0.11,-0.152 0.125,-0.13 0.148,-0.11C0.171,-0.09 0.205,-0.08 0.249,-0.08C0.306,-0.08 0.353,-0.09 0.39,-0.111C0.427,-0.131 0.45,-0.159 0.457,-0.194C0.458,-0.201 0.459,-0.206 0.459,-0.209C0.459,-0.226 0.452,-0.24 0.439,-0.251C0.426,-0.262 0.408,-0.272 0.386,-0.281C0.363,-0.29 0.331,-0.301 0.288,-0.314L0.251,-0.326C0.154,-0.357 0.106,-0.409 0.106,-0.483C0.106,-0.495 0.108,-0.509 0.111,-0.524C0.122,-0.578 0.151,-0.623 0.196,-0.658C0.241,-0.693 0.302,-0.71 0.377,-0.71C0.427,-0.71 0.469,-0.7 0.503,-0.681C0.537,-0.661 0.562,-0.637 0.579,-0.609C0.595,-0.581 0.603,-0.554 0.603,-0.529Z" style="fill:white;fill-rule:nonzero;"/>
            </g>
            <g transform="matrix(38.3145,0,0,38.3145,634.051,658)">
                <path d="M0.687,-0.7C0.694,-0.7 0.7,-0.697 0.705,-0.692C0.709,-0.687 0.71,-0.68 0.709,-0.673L0.571,-0.027C0.57,-0.02 0.566,-0.013 0.56,-0.008C0.553,-0.003 0.546,-0 0.539,-0L0.498,-0C0.491,-0 0.485,-0.003 0.481,-0.008C0.476,-0.013 0.475,-0.02 0.476,-0.027L0.536,-0.309L0.184,-0.309L0.124,-0.027C0.123,-0.02 0.119,-0.013 0.113,-0.008C0.106,-0.003 0.099,-0 0.092,-0L0.051,-0C0.044,-0 0.038,-0.003 0.034,-0.008C0.029,-0.013 0.028,-0.019 0.029,-0.027L0.167,-0.673C0.168,-0.68 0.172,-0.687 0.179,-0.692C0.185,-0.697 0.192,-0.7 0.199,-0.7L0.24,-0.7C0.247,-0.7 0.253,-0.697 0.258,-0.692C0.262,-0.687 0.263,-0.68 0.262,-0.673L0.203,-0.399L0.555,-0.399L0.614,-0.673C0.615,-0.68 0.619,-0.687 0.625,-0.692C0.632,-0.697 0.639,-0.7 0.646,-0.7L0.687,-0.7Z" style="fill:white;fill-rule:nonzero;"/>
            </g>
            <g transform="matrix(38.3145,0,0,38.3145,661.445,658)">
                <path d="M0.144,-0.158L0.064,-0.025C0.059,-0.018 0.054,-0.012 0.047,-0.007C0.04,-0.002 0.031,-0 0.02,-0L-0.025,-0C-0.03,-0 -0.035,-0.002 -0.038,-0.006C-0.041,-0.009 -0.043,-0.013 -0.043,-0.018C-0.043,-0.021 -0.042,-0.025 -0.04,-0.029L0.343,-0.667C0.356,-0.689 0.374,-0.7 0.395,-0.7L0.459,-0.7C0.48,-0.7 0.492,-0.689 0.497,-0.667L0.607,-0.036C0.608,-0.033 0.608,-0.03 0.608,-0.026C0.608,-0.018 0.606,-0.012 0.602,-0.007C0.597,-0.002 0.591,-0 0.582,-0L0.549,-0C0.53,-0 0.518,-0.008 0.515,-0.025L0.491,-0.158L0.144,-0.158ZM0.475,-0.248L0.413,-0.605L0.198,-0.248L0.475,-0.248Z" style="fill:white;fill-rule:nonzero;"/>
            </g>
            <g transform="matrix(38.3145,0,0,38.3145,687.576,658)">
                <path d="M0.442,-0.7C0.479,-0.7 0.514,-0.694 0.546,-0.682C0.577,-0.669 0.603,-0.651 0.623,-0.625C0.642,-0.601 0.652,-0.57 0.652,-0.534C0.652,-0.521 0.65,-0.506 0.647,-0.488C0.632,-0.417 0.6,-0.363 0.553,-0.327C0.506,-0.29 0.446,-0.272 0.374,-0.272L0.176,-0.272L0.124,-0.027C0.123,-0.02 0.119,-0.013 0.113,-0.008C0.106,-0.003 0.099,-0 0.092,-0L0.051,-0C0.044,-0 0.038,-0.003 0.034,-0.008C0.029,-0.013 0.028,-0.02 0.029,-0.027L0.167,-0.673C0.168,-0.68 0.172,-0.687 0.179,-0.692C0.185,-0.697 0.192,-0.7 0.199,-0.7L0.442,-0.7ZM0.374,-0.362C0.423,-0.362 0.462,-0.373 0.493,-0.394C0.524,-0.414 0.543,-0.446 0.552,-0.488C0.555,-0.501 0.556,-0.513 0.556,-0.526C0.556,-0.555 0.546,-0.576 0.527,-0.59C0.507,-0.603 0.477,-0.61 0.437,-0.61L0.248,-0.61L0.195,-0.362L0.374,-0.362Z" style="fill:white;fill-rule:nonzero;"/>
            </g>
            <g transform="matrix(38.3145,0,0,38.3145,712.097,658)">
                <path d="M0.184,-0.309L0.49,-0.309C0.497,-0.309 0.504,-0.312 0.511,-0.317C0.518,-0.322 0.522,-0.329 0.523,-0.336L0.531,-0.372C0.532,-0.379 0.531,-0.386 0.527,-0.391C0.522,-0.396 0.516,-0.399 0.509,-0.399L0.203,-0.399L0.248,-0.61L0.576,-0.61C0.583,-0.61 0.59,-0.613 0.597,-0.618C0.604,-0.623 0.608,-0.63 0.609,-0.637L0.617,-0.673C0.618,-0.68 0.617,-0.687 0.613,-0.692C0.608,-0.697 0.602,-0.7 0.595,-0.7L0.199,-0.7C0.192,-0.7 0.185,-0.697 0.179,-0.692C0.172,-0.687 0.168,-0.68 0.167,-0.673L0.029,-0.027C0.028,-0.02 0.029,-0.013 0.034,-0.008C0.038,-0.003 0.044,-0 0.051,-0L0.455,-0C0.462,-0 0.469,-0.003 0.475,-0.008C0.482,-0.013 0.486,-0.02 0.487,-0.027L0.495,-0.063C0.496,-0.07 0.495,-0.077 0.491,-0.082C0.487,-0.087 0.481,-0.09 0.474,-0.09L0.138,-0.09L0.184,-0.309Z" style="fill:white;fill-rule:nonzero;"/>
            </g>
            <g transform="matrix(57.4718,0,0,57.4718,748.751,658)">
                <path d="M0.52,-0.04C0.524,-0.035 0.526,-0.03 0.526,-0.024C0.526,-0.018 0.524,-0.013 0.519,-0.008C0.514,-0.003 0.507,-0 0.5,-0L0.446,-0C0.432,-0 0.421,-0.005 0.413,-0.015L0.181,-0.294L0.124,-0.027C0.123,-0.02 0.119,-0.013 0.113,-0.008C0.106,-0.003 0.099,-0 0.092,-0L0.051,-0C0.044,-0 0.038,-0.003 0.034,-0.008C0.029,-0.013 0.028,-0.02 0.029,-0.027L0.167,-0.673C0.168,-0.68 0.172,-0.687 0.179,-0.692C0.185,-0.697 0.192,-0.7 0.199,-0.7L0.24,-0.7C0.247,-0.7 0.253,-0.697 0.258,-0.692C0.262,-0.687 0.263,-0.68 0.262,-0.673L0.214,-0.449L0.531,-0.685C0.543,-0.695 0.556,-0.7 0.57,-0.7L0.646,-0.7C0.652,-0.7 0.657,-0.699 0.66,-0.696C0.663,-0.693 0.665,-0.69 0.665,-0.685C0.665,-0.676 0.66,-0.667 0.65,-0.66L0.248,-0.365L0.52,-0.04Z" style="fill:white;fill-rule:nonzero;"/>
            </g>
            <g transform="matrix(38.3145,0,0,38.3145,783.579,658)">
                <path d="M0.184,-0.309L0.49,-0.309C0.497,-0.309 0.504,-0.312 0.511,-0.317C0.518,-0.322 0.522,-0.329 0.523,-0.336L0.531,-0.372C0.532,-0.379 0.531,-0.386 0.527,-0.391C0.522,-0.396 0.516,-0.399 0.509,-0.399L0.203,-0.399L0.248,-0.61L0.576,-0.61C0.583,-0.61 0.59,-0.613 0.597,-0.618C0.604,-0.623 0.608,-0.63 0.609,-0.637L0.617,-0.673C0.618,-0.68 0.617,-0.687 0.613,-0.692C0.608,-0.697 0.602,-0.7 0.595,-0.7L0.199,-0.7C0.192,-0.7 0.185,-0.697 0.179,-0.692C0.172,-0.687 0.168,-0.68 0.167,-0.673L0.029,-0.027C0.028,-0.02 0.029,-0.013 0.034,-0.008C0.038,-0.003 0.044,-0 0.051,-0L0.455,-0C0.462,-0 0.469,-0.003 0.475,-0.008C0.482,-0.013 0.486,-0.02 0.487,-0.027L0.495,-0.063C0.496,-0.07 0.495,-0.077 0.491,-0.082C0.487,-0.087 0.481,-0.09 0.474,-0.09L0.138,-0.09L0.184,-0.309Z" style="fill:white;fill-rule:nonzero;"/>
            </g>
            <g transform="matrix(38.3145,0,0,38.3145,806.261,658)">
                <path d="M0.311,-0.027C0.31,-0.02 0.306,-0.013 0.3,-0.008C0.293,-0.003 0.286,-0 0.279,-0L0.238,-0C0.231,-0 0.225,-0.003 0.221,-0.008C0.216,-0.013 0.215,-0.02 0.216,-0.027L0.266,-0.261L0.113,-0.664C0.112,-0.668 0.111,-0.671 0.111,-0.674C0.111,-0.681 0.114,-0.687 0.118,-0.692C0.124,-0.697 0.13,-0.7 0.137,-0.7L0.171,-0.7C0.183,-0.7 0.192,-0.698 0.197,-0.694C0.202,-0.689 0.205,-0.683 0.208,-0.675L0.327,-0.361L0.579,-0.675C0.586,-0.684 0.593,-0.691 0.598,-0.695C0.603,-0.698 0.612,-0.7 0.624,-0.7L0.674,-0.7C0.687,-0.7 0.694,-0.695 0.694,-0.684C0.694,-0.677 0.691,-0.671 0.686,-0.664L0.361,-0.261L0.311,-0.027Z" style="fill:white;fill-rule:nonzero;"/>
            </g>
            <g transform="matrix(57.4718,0,0,57.4718,845.189,658)">
                <path d="M0.603,-0.529C0.603,-0.523 0.6,-0.518 0.594,-0.514C0.588,-0.509 0.582,-0.507 0.576,-0.507L0.535,-0.507C0.527,-0.507 0.521,-0.508 0.518,-0.511C0.515,-0.515 0.512,-0.52 0.509,-0.529C0.503,-0.55 0.489,-0.57 0.468,-0.59C0.446,-0.61 0.416,-0.62 0.377,-0.62C0.329,-0.62 0.29,-0.611 0.26,-0.594C0.229,-0.576 0.21,-0.55 0.203,-0.516C0.202,-0.511 0.201,-0.505 0.201,-0.496C0.201,-0.478 0.207,-0.463 0.22,-0.452C0.233,-0.44 0.251,-0.429 0.276,-0.42C0.3,-0.411 0.336,-0.399 0.384,-0.386C0.444,-0.369 0.488,-0.348 0.516,-0.322C0.543,-0.296 0.557,-0.264 0.557,-0.226C0.557,-0.215 0.555,-0.201 0.552,-0.184C0.539,-0.123 0.506,-0.076 0.454,-0.042C0.402,-0.007 0.334,0.01 0.249,0.01C0.2,0.01 0.157,0.001 0.121,-0.018C0.084,-0.037 0.057,-0.06 0.038,-0.089C0.019,-0.118 0.01,-0.147 0.011,-0.176C0.011,-0.182 0.014,-0.187 0.02,-0.192C0.026,-0.196 0.032,-0.198 0.038,-0.198L0.079,-0.198C0.086,-0.198 0.092,-0.197 0.096,-0.194C0.1,-0.191 0.103,-0.185 0.105,-0.176C0.11,-0.152 0.125,-0.13 0.148,-0.11C0.171,-0.09 0.205,-0.08 0.249,-0.08C0.306,-0.08 0.353,-0.09 0.39,-0.111C0.427,-0.131 0.45,-0.159 0.457,-0.194C0.458,-0.201 0.459,-0.206 0.459,-0.209C0.459,-0.226 0.452,-0.24 0.439,-0.251C0.426,-0.262 0.408,-0.272 0.386,-0.281C0.363,-0.29 0.331,-0.301 0.288,-0.314L0.251,-0.326C0.154,-0.357 0.106,-0.409 0.106,-0.483C0.106,-0.495 0.108,-0.509 0.111,-0.524C0.122,-0.578 0.151,-0.623 0.196,-0.658C0.241,-0.693 0.302,-0.71 0.377,-0.71C0.427,-0.71 0.469,-0.7 0.503,-0.681C0.537,-0.661 0.562,-0.637 0.579,-0.609C0.595,-0.581 0.603,-0.554 0.603,-0.529Z" style="fill:white;fill-rule:nonzero;"/>
            </g>
            <g transform="matrix(38.3145,0,0,38.3145,879.595,658)">
                <path d="M0.311,-0.027C0.31,-0.02 0.306,-0.013 0.3,-0.008C0.293,-0.003 0.286,-0 0.279,-0L0.238,-0C0.231,-0 0.225,-0.003 0.221,-0.008C0.216,-0.013 0.215,-0.02 0.216,-0.027L0.266,-0.261L0.113,-0.664C0.112,-0.668 0.111,-0.671 0.111,-0.674C0.111,-0.681 0.114,-0.687 0.118,-0.692C0.124,-0.697 0.13,-0.7 0.137,-0.7L0.171,-0.7C0.183,-0.7 0.192,-0.698 0.197,-0.694C0.202,-0.689 0.205,-0.683 0.208,-0.675L0.327,-0.361L0.579,-0.675C0.586,-0.684 0.593,-0.691 0.598,-0.695C0.603,-0.698 0.612,-0.7 0.624,-0.7L0.674,-0.7C0.687,-0.7 0.694,-0.695 0.694,-0.684C0.694,-0.677 0.691,-0.671 0.686,-0.664L0.361,-0.261L0.311,-0.027Z" style="fill:white;fill-rule:nonzero;"/>
            </g>
            <g transform="matrix(38.3145,0,0,38.3145,903.657,658)">
                <path d="M0.603,-0.529C0.603,-0.523 0.6,-0.518 0.594,-0.514C0.588,-0.509 0.582,-0.507 0.576,-0.507L0.535,-0.507C0.527,-0.507 0.521,-0.508 0.518,-0.511C0.515,-0.515 0.512,-0.52 0.509,-0.529C0.503,-0.55 0.489,-0.57 0.468,-0.59C0.446,-0.61 0.416,-0.62 0.377,-0.62C0.329,-0.62 0.29,-0.611 0.26,-0.594C0.229,-0.576 0.21,-0.55 0.203,-0.516C0.202,-0.511 0.201,-0.505 0.201,-0.496C0.201,-0.478 0.207,-0.463 0.22,-0.452C0.233,-0.44 0.251,-0.429 0.276,-0.42C0.3,-0.411 0.336,-0.399 0.384,-0.386C0.444,-0.369 0.488,-0.348 0.516,-0.322C0.543,-0.296 0.557,-0.264 0.557,-0.226C0.557,-0.215 0.555,-0.201 0.552,-0.184C0.539,-0.123 0.506,-0.076 0.454,-0.042C0.402,-0.007 0.334,0.01 0.249,0.01C0.2,0.01 0.157,0.001 0.121,-0.018C0.084,-0.037 0.057,-0.06 0.038,-0.089C0.019,-0.118 0.01,-0.147 0.011,-0.176C0.011,-0.182 0.014,-0.187 0.02,-0.192C0.026,-0.196 0.032,-0.198 0.038,-0.198L0.079,-0.198C0.086,-0.198 0.092,-0.197 0.096,-0.194C0.1,-0.191 0.103,-0.185 0.105,-0.176C0.11,-0.152 0.125,-0.13 0.148,-0.11C0.171,-0.09 0.205,-0.08 0.249,-0.08C0.306,-0.08 0.353,-0.09 0.39,-0.111C0.427,-0.131 0.45,-0.159 0.457,-0.194C0.458,-0.201 0.459,-0.206 0.459,-0.209C0.459,-0.226 0.452,-0.24 0.439,-0.251C0.426,-0.262 0.408,-0.272 0.386,-0.281C0.363,-0.29 0.331,-0.301 0.288,-0.314L0.251,-0.326C0.154,-0.357 0.106,-0.409 0.106,-0.483C0.106,-0.495 0.108,-0.509 0.111,-0.524C0.122,-0.578 0.151,-0.623 0.196,-0.658C0.241,-0.693 0.302,-0.71 0.377,-0.71C0.427,-0.71 0.469,-0.7 0.503,-0.681C0.537,-0.661 0.562,-0.637 0.579,-0.609C0.595,-0.581 0.603,-0.554 0.603,-0.529Z" style="fill:white;fill-rule:nonzero;"/>
            </g>
            <g transform="matrix(38.3145,0,0,38.3145,927.259,658)">
                <path d="M0.602,-0.7C0.609,-0.7 0.615,-0.697 0.62,-0.692C0.624,-0.687 0.625,-0.68 0.624,-0.673L0.616,-0.637C0.615,-0.63 0.611,-0.623 0.604,-0.618C0.597,-0.613 0.59,-0.61 0.583,-0.61L0.396,-0.61L0.272,-0.027C0.271,-0.02 0.267,-0.013 0.261,-0.008C0.254,-0.003 0.247,-0 0.24,-0L0.199,-0C0.192,-0 0.186,-0.003 0.182,-0.008C0.177,-0.013 0.176,-0.02 0.177,-0.027L0.301,-0.61L0.114,-0.61C0.107,-0.61 0.101,-0.613 0.097,-0.618C0.093,-0.623 0.092,-0.63 0.093,-0.637L0.101,-0.673C0.102,-0.68 0.106,-0.687 0.113,-0.692C0.119,-0.697 0.126,-0.7 0.133,-0.7L0.602,-0.7Z" style="fill:white;fill-rule:nonzero;"/>
            </g>
            <g transform="matrix(38.3145,0,0,38.3145,948.906,658)">
                <path d="M0.184,-0.309L0.49,-0.309C0.497,-0.309 0.504,-0.312 0.511,-0.317C0.518,-0.322 0.522,-0.329 0.523,-0.336L0.531,-0.372C0.532,-0.379 0.531,-0.386 0.527,-0.391C0.522,-0.396 0.516,-0.399 0.509,-0.399L0.203,-0.399L0.248,-0.61L0.576,-0.61C0.583,-0.61 0.59,-0.613 0.597,-0.618C0.604,-0.623 0.608,-0.63 0.609,-0.637L0.617,-0.673C0.618,-0.68 0.617,-0.687 0.613,-0.692C0.608,-0.697 0.602,-0.7 0.595,-0.7L0.199,-0.7C0.192,-0.7 0.185,-0.697 0.179,-0.692C0.172,-0.687 0.168,-0.68 0.167,-0.673L0.029,-0.027C0.028,-0.02 0.029,-0.013 0.034,-0.008C0.038,-0.003 0.044,-0 0.051,-0L0.455,-0C0.462,-0 0.469,-0.003 0.475,-0.008C0.482,-0.013 0.486,-0.02 0.487,-0.027L0.495,-0.063C0.496,-0.07 0.495,-0.077 0.491,-0.082C0.487,-0.087 0.481,-0.09 0.474,-0.09L0.138,-0.09L0.184,-0.309Z" style="fill:white;fill-rule:nonzero;"/>
            </g>
            <g transform="matrix(38.3145,0,0,38.3145,971.588,658)">
                <path d="M0.668,-0.668C0.684,-0.689 0.701,-0.7 0.719,-0.7L0.767,-0.7C0.774,-0.7 0.78,-0.697 0.785,-0.692C0.789,-0.687 0.79,-0.68 0.789,-0.673L0.651,-0.027C0.65,-0.02 0.646,-0.013 0.64,-0.008C0.633,-0.003 0.626,-0 0.619,-0L0.578,-0C0.571,-0 0.565,-0.003 0.561,-0.008C0.556,-0.013 0.555,-0.02 0.556,-0.027L0.659,-0.511L0.437,-0.2C0.43,-0.189 0.422,-0.181 0.414,-0.176C0.407,-0.171 0.398,-0.168 0.389,-0.168L0.351,-0.168C0.342,-0.168 0.335,-0.171 0.33,-0.176C0.325,-0.181 0.32,-0.189 0.317,-0.2L0.227,-0.511L0.124,-0.027C0.123,-0.02 0.119,-0.013 0.113,-0.008C0.106,-0.003 0.099,-0 0.092,-0L0.051,-0C0.044,-0 0.038,-0.003 0.034,-0.008C0.029,-0.013 0.028,-0.02 0.029,-0.027L0.167,-0.673C0.168,-0.68 0.172,-0.687 0.179,-0.692C0.185,-0.697 0.192,-0.7 0.199,-0.7L0.237,-0.7C0.255,-0.7 0.267,-0.689 0.274,-0.668L0.386,-0.277L0.668,-0.668Z" style="fill:white;fill-rule:nonzero;"/>
            </g>
        </g>
    </g>
</svg>
