<?xml version="1.0" encoding="UTF-8" standalone="no"?>
<!DOCTYPE svg PUBLIC "-//W3C//DTD SVG 1.1//EN" "http://www.w3.org/Graphics/SVG/1.1/DTD/svg11.dtd">
<svg width="100%" height="100%" viewBox="0 0 1080 300" version="1.1" xmlns="http://www.w3.org/2000/svg" xmlns:xlink="http://www.w3.org/1999/xlink" xml:space="preserve" xmlns:serif="http://www.serif.com/" style="fill-rule:evenodd;clip-rule:evenodd;stroke-linecap:round;stroke-linejoin:round;stroke-miterlimit:1.5;">
    <g transform="matrix(0.53418,0,0,0.53418,-0.900191,-211.869)">
        <circle cx="427.142" cy="733.974" r="178.026" style="fill-opacity:0.32;"/>
    </g>
    <g transform="matrix(1.06729,0,0,1.06729,-103.276,-309.574)">
        <g transform="matrix(148.351,0,0,148.351,346,434)">
            <path d="M0.548,-0.293C0.549,-0.286 0.549,-0.276 0.549,-0.261C0.549,-0.246 0.549,-0.235 0.548,-0.228C0.546,-0.18 0.535,-0.138 0.515,-0.102C0.494,-0.066 0.467,-0.038 0.434,-0.019C0.4,0 0.362,0.01 0.321,0.01C0.252,0.01 0.2,-0.013 0.166,-0.058L0.166,-0.027C0.166,-0.02 0.163,-0.013 0.158,-0.008C0.153,-0.003 0.146,-0 0.139,-0L0.102,-0C0.095,-0 0.088,-0.003 0.083,-0.008C0.078,-0.013 0.075,-0.02 0.075,-0.027L0.075,-0.683C0.075,-0.69 0.078,-0.697 0.083,-0.702C0.088,-0.707 0.095,-0.71 0.102,-0.71L0.139,-0.71C0.146,-0.71 0.153,-0.707 0.158,-0.702C0.163,-0.697 0.166,-0.69 0.166,-0.683L0.166,-0.462C0.181,-0.481 0.201,-0.498 0.227,-0.51C0.252,-0.524 0.284,-0.53 0.321,-0.53C0.363,-0.53 0.401,-0.52 0.434,-0.501C0.467,-0.482 0.494,-0.454 0.515,-0.419C0.535,-0.383 0.546,-0.341 0.548,-0.293ZM0.311,-0.076C0.354,-0.076 0.389,-0.09 0.414,-0.117C0.439,-0.145 0.454,-0.183 0.457,-0.232C0.458,-0.239 0.458,-0.248 0.458,-0.26C0.458,-0.317 0.445,-0.362 0.42,-0.395C0.394,-0.428 0.358,-0.444 0.311,-0.444C0.269,-0.444 0.235,-0.431 0.21,-0.405C0.185,-0.379 0.17,-0.343 0.166,-0.296C0.165,-0.289 0.165,-0.276 0.165,-0.257C0.165,-0.237 0.165,-0.224 0.166,-0.217C0.169,-0.174 0.184,-0.139 0.211,-0.114C0.237,-0.089 0.27,-0.076 0.311,-0.076Z" style="fill-rule:nonzero;"/>
        </g>
        <g transform="matrix(148.351,0,0,148.351,434.714,434)">
            <path d="M0.28,-0.53C0.351,-0.53 0.408,-0.507 0.449,-0.462C0.49,-0.417 0.511,-0.355 0.511,-0.277L0.511,-0.25C0.511,-0.243 0.508,-0.236 0.503,-0.231C0.498,-0.226 0.491,-0.223 0.484,-0.223L0.14,-0.223L0.14,-0.217C0.141,-0.173 0.155,-0.139 0.181,-0.114C0.206,-0.089 0.239,-0.076 0.28,-0.076C0.313,-0.076 0.339,-0.08 0.358,-0.089C0.376,-0.098 0.392,-0.11 0.407,-0.126C0.412,-0.131 0.417,-0.135 0.422,-0.137C0.426,-0.139 0.432,-0.14 0.439,-0.14L0.469,-0.14C0.477,-0.14 0.484,-0.137 0.489,-0.132C0.494,-0.127 0.497,-0.12 0.496,-0.113C0.493,-0.095 0.484,-0.077 0.467,-0.058C0.45,-0.039 0.425,-0.023 0.394,-0.01C0.362,0.003 0.324,0.01 0.28,0.01C0.237,0.01 0.199,0 0.166,-0.02C0.133,-0.039 0.106,-0.066 0.086,-0.101C0.067,-0.136 0.055,-0.175 0.051,-0.218C0.05,-0.238 0.049,-0.253 0.049,-0.264C0.049,-0.275 0.05,-0.29 0.051,-0.31C0.055,-0.351 0.067,-0.389 0.086,-0.422C0.106,-0.455 0.133,-0.482 0.166,-0.501C0.199,-0.52 0.237,-0.53 0.28,-0.53ZM0.421,-0.307L0.421,-0.31C0.421,-0.351 0.408,-0.383 0.383,-0.407C0.357,-0.432 0.323,-0.444 0.28,-0.444C0.241,-0.444 0.209,-0.432 0.182,-0.407C0.155,-0.382 0.141,-0.35 0.14,-0.31L0.14,-0.307L0.421,-0.307Z" style="fill-rule:nonzero;"/>
        </g>
        <g transform="matrix(148.351,0,0,148.351,517.345,434)">
            <path d="M0.211,-0.175C0.211,-0.146 0.217,-0.124 0.229,-0.109C0.24,-0.094 0.262,-0.086 0.295,-0.086L0.348,-0.086C0.355,-0.086 0.362,-0.083 0.367,-0.078C0.372,-0.073 0.375,-0.066 0.375,-0.059L0.375,-0.027C0.375,-0.02 0.372,-0.013 0.367,-0.008C0.362,-0.003 0.355,-0 0.348,-0L0.285,-0C0.228,-0 0.187,-0.015 0.16,-0.045C0.133,-0.074 0.12,-0.118 0.12,-0.175L0.12,-0.434L0.046,-0.434C0.039,-0.434 0.032,-0.437 0.027,-0.442C0.022,-0.447 0.019,-0.454 0.019,-0.461L0.019,-0.493C0.019,-0.5 0.022,-0.507 0.027,-0.512C0.032,-0.517 0.039,-0.52 0.046,-0.52L0.12,-0.52L0.12,-0.683C0.12,-0.69 0.123,-0.697 0.128,-0.702C0.133,-0.707 0.14,-0.71 0.147,-0.71L0.184,-0.71C0.191,-0.71 0.198,-0.707 0.203,-0.702C0.208,-0.697 0.211,-0.69 0.211,-0.683L0.211,-0.52L0.338,-0.52C0.345,-0.52 0.352,-0.517 0.357,-0.512C0.362,-0.507 0.365,-0.5 0.365,-0.493L0.365,-0.461C0.365,-0.454 0.362,-0.447 0.357,-0.442C0.352,-0.437 0.345,-0.434 0.338,-0.434L0.211,-0.434L0.211,-0.175Z" style="fill-rule:nonzero;"/>
        </g>
        <g transform="matrix(148.351,0,0,148.351,576.685,434)">
            <path d="M0.676,-0.496C0.682,-0.512 0.693,-0.52 0.71,-0.52L0.743,-0.52C0.75,-0.52 0.755,-0.518 0.76,-0.513C0.765,-0.508 0.767,-0.503 0.767,-0.496L0.766,-0.488L0.613,-0.028C0.607,-0.009 0.597,-0 0.583,-0L0.552,-0C0.544,-0 0.538,-0.003 0.533,-0.008C0.528,-0.013 0.524,-0.019 0.521,-0.028L0.402,-0.36L0.283,-0.028C0.28,-0.019 0.276,-0.013 0.271,-0.008C0.266,-0.003 0.26,-0 0.252,-0L0.221,-0C0.207,-0 0.197,-0.009 0.191,-0.028L0.038,-0.488L0.037,-0.496C0.037,-0.503 0.039,-0.508 0.044,-0.513C0.049,-0.518 0.054,-0.52 0.061,-0.52L0.094,-0.52C0.111,-0.52 0.122,-0.512 0.128,-0.496L0.24,-0.162L0.36,-0.496C0.366,-0.512 0.376,-0.52 0.391,-0.52L0.413,-0.52C0.428,-0.52 0.438,-0.512 0.444,-0.496L0.564,-0.162L0.676,-0.496Z" style="fill-rule:nonzero;"/>
        </g>
        <g transform="matrix(148.351,0,0,148.351,695.959,434)">
            <path d="M0.28,-0.53C0.351,-0.53 0.408,-0.507 0.449,-0.462C0.49,-0.417 0.511,-0.355 0.511,-0.277L0.511,-0.25C0.511,-0.243 0.508,-0.236 0.503,-0.231C0.498,-0.226 0.491,-0.223 0.484,-0.223L0.14,-0.223L0.14,-0.217C0.141,-0.173 0.155,-0.139 0.181,-0.114C0.206,-0.089 0.239,-0.076 0.28,-0.076C0.313,-0.076 0.339,-0.08 0.358,-0.089C0.376,-0.098 0.392,-0.11 0.407,-0.126C0.412,-0.131 0.417,-0.135 0.422,-0.137C0.426,-0.139 0.432,-0.14 0.439,-0.14L0.469,-0.14C0.477,-0.14 0.484,-0.137 0.489,-0.132C0.494,-0.127 0.497,-0.12 0.496,-0.113C0.493,-0.095 0.484,-0.077 0.467,-0.058C0.45,-0.039 0.425,-0.023 0.394,-0.01C0.362,0.003 0.324,0.01 0.28,0.01C0.237,0.01 0.199,0 0.166,-0.02C0.133,-0.039 0.106,-0.066 0.086,-0.101C0.067,-0.136 0.055,-0.175 0.051,-0.218C0.05,-0.238 0.049,-0.253 0.049,-0.264C0.049,-0.275 0.05,-0.29 0.051,-0.31C0.055,-0.351 0.067,-0.389 0.086,-0.422C0.106,-0.455 0.133,-0.482 0.166,-0.501C0.199,-0.52 0.237,-0.53 0.28,-0.53ZM0.421,-0.307L0.421,-0.31C0.421,-0.351 0.408,-0.383 0.383,-0.407C0.357,-0.432 0.323,-0.444 0.28,-0.444C0.241,-0.444 0.209,-0.432 0.182,-0.407C0.155,-0.382 0.141,-0.35 0.14,-0.31L0.14,-0.307L0.421,-0.307Z" style="fill-rule:nonzero;"/>
        </g>
        <g transform="matrix(148.351,0,0,148.351,778.591,434)">
            <path d="M0.28,-0.53C0.351,-0.53 0.408,-0.507 0.449,-0.462C0.49,-0.417 0.511,-0.355 0.511,-0.277L0.511,-0.25C0.511,-0.243 0.508,-0.236 0.503,-0.231C0.498,-0.226 0.491,-0.223 0.484,-0.223L0.14,-0.223L0.14,-0.217C0.141,-0.173 0.155,-0.139 0.181,-0.114C0.206,-0.089 0.239,-0.076 0.28,-0.076C0.313,-0.076 0.339,-0.08 0.358,-0.089C0.376,-0.098 0.392,-0.11 0.407,-0.126C0.412,-0.131 0.417,-0.135 0.422,-0.137C0.426,-0.139 0.432,-0.14 0.439,-0.14L0.469,-0.14C0.477,-0.14 0.484,-0.137 0.489,-0.132C0.494,-0.127 0.497,-0.12 0.496,-0.113C0.493,-0.095 0.484,-0.077 0.467,-0.058C0.45,-0.039 0.425,-0.023 0.394,-0.01C0.362,0.003 0.324,0.01 0.28,0.01C0.237,0.01 0.199,0 0.166,-0.02C0.133,-0.039 0.106,-0.066 0.086,-0.101C0.067,-0.136 0.055,-0.175 0.051,-0.218C0.05,-0.238 0.049,-0.253 0.049,-0.264C0.049,-0.275 0.05,-0.29 0.051,-0.31C0.055,-0.351 0.067,-0.389 0.086,-0.422C0.106,-0.455 0.133,-0.482 0.166,-0.501C0.199,-0.52 0.237,-0.53 0.28,-0.53ZM0.421,-0.307L0.421,-0.31C0.421,-0.351 0.408,-0.383 0.383,-0.407C0.357,-0.432 0.323,-0.444 0.28,-0.444C0.241,-0.444 0.209,-0.432 0.182,-0.407C0.155,-0.382 0.141,-0.35 0.14,-0.31L0.14,-0.307L0.421,-0.307Z" style="fill-rule:nonzero;"/>
        </g>
        <g transform="matrix(148.351,0,0,148.351,861.222,434)">
            <path d="M0.537,-0.027C0.537,-0.02 0.534,-0.013 0.529,-0.008C0.524,-0.003 0.517,-0 0.51,-0L0.473,-0C0.466,-0 0.459,-0.003 0.454,-0.008C0.449,-0.013 0.446,-0.02 0.446,-0.027L0.446,-0.291C0.446,-0.341 0.434,-0.379 0.409,-0.405C0.384,-0.431 0.35,-0.444 0.306,-0.444C0.263,-0.444 0.229,-0.431 0.203,-0.405C0.179,-0.379 0.166,-0.341 0.166,-0.291L0.166,-0.027C0.166,-0.02 0.163,-0.013 0.158,-0.008C0.153,-0.003 0.146,-0 0.139,-0L0.102,-0C0.095,-0 0.088,-0.003 0.083,-0.008C0.078,-0.013 0.075,-0.02 0.075,-0.027L0.075,-0.493C0.075,-0.5 0.078,-0.507 0.083,-0.512C0.088,-0.517 0.095,-0.52 0.102,-0.52L0.139,-0.52C0.146,-0.52 0.153,-0.517 0.158,-0.512C0.163,-0.507 0.166,-0.5 0.166,-0.493L0.166,-0.462C0.181,-0.481 0.201,-0.498 0.227,-0.51C0.252,-0.524 0.284,-0.53 0.321,-0.53C0.363,-0.53 0.4,-0.521 0.433,-0.503C0.466,-0.485 0.491,-0.459 0.509,-0.426C0.528,-0.392 0.537,-0.352 0.537,-0.306L0.537,-0.027Z" style="fill-rule:nonzero;"/>
        </g>
        <g transform="matrix(148.351,0,0,148.351,951.271,434)">
            <path d="M0.2,-0.231C0.103,-0.252 0.054,-0.301 0.054,-0.38C0.054,-0.407 0.061,-0.432 0.076,-0.455C0.091,-0.478 0.113,-0.496 0.141,-0.509C0.171,-0.523 0.206,-0.53 0.248,-0.53C0.289,-0.53 0.325,-0.524 0.355,-0.512C0.385,-0.5 0.408,-0.485 0.424,-0.467C0.439,-0.449 0.447,-0.432 0.447,-0.415C0.447,-0.408 0.444,-0.403 0.439,-0.398C0.434,-0.393 0.427,-0.39 0.42,-0.39L0.387,-0.39C0.374,-0.39 0.364,-0.395 0.357,-0.404C0.336,-0.431 0.3,-0.444 0.248,-0.444C0.217,-0.444 0.193,-0.438 0.173,-0.427C0.155,-0.416 0.145,-0.4 0.145,-0.38C0.145,-0.363 0.15,-0.351 0.159,-0.342C0.168,-0.333 0.182,-0.326 0.201,-0.321C0.22,-0.316 0.253,-0.308 0.3,-0.297C0.359,-0.284 0.4,-0.265 0.425,-0.239C0.45,-0.213 0.462,-0.181 0.462,-0.144C0.462,-0.117 0.454,-0.091 0.437,-0.068C0.42,-0.045 0.395,-0.026 0.364,-0.012C0.332,0.003 0.295,0.01 0.253,0.01C0.212,0.01 0.175,0.003 0.143,-0.01C0.112,-0.023 0.087,-0.038 0.07,-0.057C0.053,-0.076 0.044,-0.093 0.044,-0.11C0.044,-0.117 0.047,-0.123 0.052,-0.128C0.057,-0.133 0.064,-0.135 0.071,-0.135L0.107,-0.135C0.113,-0.135 0.118,-0.134 0.123,-0.133C0.128,-0.132 0.132,-0.128 0.136,-0.122C0.158,-0.091 0.197,-0.076 0.253,-0.076C0.284,-0.076 0.312,-0.083 0.336,-0.096C0.359,-0.109 0.371,-0.125 0.371,-0.144C0.371,-0.16 0.365,-0.173 0.354,-0.183C0.342,-0.192 0.325,-0.2 0.303,-0.206C0.281,-0.213 0.247,-0.221 0.2,-0.231Z" style="fill-rule:nonzero;"/>
        </g>
    </g>
    <g transform="matrix(1.12794,0,0,1.12794,-340.976,-335.104)">
        <g transform="matrix(140.374,0,0,140.374,346,434)">
            <path d="M0.176,-0.626C0.176,-0.619 0.173,-0.612 0.168,-0.607C0.163,-0.602 0.156,-0.599 0.149,-0.599L0.092,-0.599C0.085,-0.599 0.078,-0.602 0.073,-0.607C0.068,-0.612 0.065,-0.619 0.065,-0.626L0.065,-0.683C0.065,-0.69 0.068,-0.697 0.073,-0.702C0.078,-0.707 0.085,-0.71 0.092,-0.71L0.149,-0.71C0.156,-0.71 0.163,-0.707 0.168,-0.702C0.173,-0.697 0.176,-0.69 0.176,-0.683L0.176,-0.626ZM0.166,-0.027C0.166,-0.02 0.163,-0.013 0.158,-0.008C0.153,-0.003 0.146,-0 0.139,-0L0.102,-0C0.095,-0 0.088,-0.003 0.083,-0.008C0.078,-0.013 0.075,-0.02 0.075,-0.027L0.075,-0.493C0.075,-0.5 0.078,-0.507 0.083,-0.512C0.088,-0.517 0.095,-0.52 0.102,-0.52L0.139,-0.52C0.146,-0.52 0.153,-0.517 0.158,-0.512C0.163,-0.507 0.166,-0.5 0.166,-0.493L0.166,-0.027Z" style="fill-rule:nonzero;"/>
        </g>
        <g transform="matrix(140.374,0,0,140.374,379.83,434)">
            <path d="M0.537,-0.027C0.537,-0.02 0.534,-0.013 0.529,-0.008C0.524,-0.003 0.517,-0 0.51,-0L0.473,-0C0.466,-0 0.459,-0.003 0.454,-0.008C0.449,-0.013 0.446,-0.02 0.446,-0.027L0.446,-0.291C0.446,-0.341 0.434,-0.379 0.409,-0.405C0.384,-0.431 0.35,-0.444 0.306,-0.444C0.263,-0.444 0.229,-0.431 0.203,-0.405C0.179,-0.379 0.166,-0.341 0.166,-0.291L0.166,-0.027C0.166,-0.02 0.163,-0.013 0.158,-0.008C0.153,-0.003 0.146,-0 0.139,-0L0.102,-0C0.095,-0 0.088,-0.003 0.083,-0.008C0.078,-0.013 0.075,-0.02 0.075,-0.027L0.075,-0.493C0.075,-0.5 0.078,-0.507 0.083,-0.512C0.088,-0.517 0.095,-0.52 0.102,-0.52L0.139,-0.52C0.146,-0.52 0.153,-0.517 0.158,-0.512C0.163,-0.507 0.166,-0.5 0.166,-0.493L0.166,-0.462C0.181,-0.481 0.201,-0.498 0.227,-0.51C0.252,-0.524 0.284,-0.53 0.321,-0.53C0.363,-0.53 0.4,-0.521 0.433,-0.503C0.466,-0.485 0.491,-0.459 0.509,-0.426C0.528,-0.392 0.537,-0.352 0.537,-0.306L0.537,-0.027Z" style="fill-rule:nonzero;"/>
        </g>
    </g>
    <g transform="matrix(0.985966,0,0,0.985966,1.15186,-37.0398)">
        <circle cx="229.337" cy="220.337" r="32.337"/>
    </g>
    <g transform="matrix(0.930222,0,0,0.930222,-110.557,-162.394)">
        <rect x="163" y="185" width="53.779" height="53.779"/>
    </g>
    <g transform="matrix(0.953915,0,0,0.953915,326.324,-475.416)">
        <path d="M733,646L768,716L698,716L733,646Z"/>
    </g>
    <g transform="matrix(1.12527,0,0,1.12527,-91.3545,-508.367)">
        <path d="M155.03,481.62L283.154,482.62L283.154,611.917L992.56,611.917" style="fill:none;stroke:black;stroke-width:11.84px;"/>
    </g>
</svg>
